<?xml version="1.0" standalone="no"?>
<!DOCTYPE svg PUBLIC "-//W3C//DTD SVG 20010904//EN"
 "http://www.w3.org/TR/2001/REC-SVG-20010904/DTD/svg10.dtd">
<svg version="1.0" xmlns="http://www.w3.org/2000/svg"
 width="960.000000pt" height="874.000000pt" viewBox="0 0 960.000000 874.000000"
 preserveAspectRatio="xMidYMid meet">

<g transform="translate(0.000000,874.000000) scale(0.100000,-0.100000)"
fill="#000000" stroke="none">
<path d="M4763 8730 c-62 -14 -97 -45 -162 -140 l-63 -95 -114 -37 c-126 -42
-175 -67 -457 -229 -476 -274 -509 -296 -613 -392 l-71 -66 -99 -7 c-163 -10
-211 -33 -251 -122 -34 -72 -28 -112 32 -234 l48 -97 -24 -108 c-24 -107 -24
-115 -24 -628 0 -518 0 -520 24 -617 l25 -97 -52 -108 c-58 -120 -64 -161 -33
-228 38 -83 93 -111 242 -121 l104 -7 85 -75 c117 -103 146 -121 561 -359 323
-185 380 -214 490 -251 l124 -41 65 -97 c80 -120 121 -148 212 -142 80 6 120
36 197 150 61 90 66 95 113 106 101 23 240 89 458 215 124 71 254 147 290 167
154 88 190 109 246 147 33 23 93 72 134 110 l75 70 110 5 c143 6 195 30 236
110 34 67 26 130 -31 246 l-49 102 18 72 c34 132 41 244 41 648 0 411 -7 523
-40 652 l-20 77 49 93 c27 51 51 109 55 128 10 59 -18 133 -65 174 -46 39 -89
51 -225 61 -77 6 -82 8 -125 49 -55 52 -132 113 -184 148 -34 23 -392 231
-525 306 -25 14 -61 35 -81 48 -74 46 -217 112 -299 139 -47 14 -94 30 -105
35 -11 4 -45 47 -75 95 -77 123 -152 167 -247 145z m106 -254 c9 -8 32 -42 51
-76 25 -42 43 -62 60 -66 145 -32 274 -81 390 -149 25 -15 61 -36 80 -47 19
-12 123 -71 230 -133 286 -165 299 -173 370 -225 36 -27 94 -78 129 -114 l64
-64 85 -8 c72 -6 89 -11 113 -33 47 -42 47 -75 1 -163 l-40 -76 24 -78 c42
-130 46 -198 41 -714 -3 -469 -4 -488 -26 -565 -37 -128 -37 -121 4 -200 33
-65 36 -78 28 -111 -14 -60 -57 -84 -151 -84 l-75 0 -71 -72 c-39 -40 -96 -92
-126 -115 -45 -33 -362 -222 -580 -345 -25 -14 -82 -47 -126 -72 -97 -56 -201
-97 -306 -121 l-77 -18 -37 -59 c-50 -82 -70 -98 -120 -98 -51 0 -72 17 -118
94 l-36 59 -89 23 c-145 38 -207 68 -540 259 -472 271 -481 277 -606 404 l-59
61 -79 0 c-76 0 -80 1 -113 34 -45 45 -44 79 2 167 l37 70 -21 72 c-47 164
-47 170 -47 672 0 501 1 511 47 668 l19 69 -35 68 c-38 72 -43 103 -24 145 18
40 57 55 140 55 l73 0 73 75 c103 104 171 153 409 290 114 65 262 150 328 188
188 109 276 146 440 187 34 8 46 18 73 63 33 55 65 90 92 100 23 10 81 -1 99
-17z"/>
<path d="M4745 8339 c-117 -189 -190 -365 -236 -565 -31 -142 -32 -385 0 -534
24 -112 49 -203 75 -265 9 -21 15 -40 13 -41 -2 -2 -57 49 -123 114 -65 64
-160 145 -210 179 -279 190 -593 283 -956 283 -112 0 -109 3 -68 -80 177 -349
441 -607 758 -738 108 -45 198 -73 317 -97 44 -9 81 -18 83 -19 2 -2 -32 -12
-75 -21 -282 -62 -545 -197 -741 -379 -118 -109 -254 -286 -341 -444 l-39 -70
87 -8 c270 -22 599 44 831 168 144 76 212 129 359 275 73 74 130 126 127 116
-18 -44 -57 -191 -73 -271 -13 -65 -18 -136 -18 -282 0 -216 17 -328 77 -499
36 -105 122 -286 172 -364 l37 -58 18 23 c131 175 246 447 286 677 20 110 19
334 0 447 -17 94 -57 246 -81 303 -8 19 -13 36 -11 38 3 2 40 -33 83 -78 237
-244 503 -392 829 -460 73 -16 151 -23 288 -26 103 -3 187 -3 187 0 0 13 -115
215 -168 296 -70 106 -268 307 -372 378 -159 107 -368 194 -558 230 -50 9 -92
20 -92 23 0 3 32 12 71 19 101 18 257 73 379 132 266 130 498 346 662 619 48
80 78 135 78 145 0 9 -323 5 -410 -5 -340 -42 -632 -189 -871 -436 -41 -44
-83 -90 -92 -103 -27 -40 -31 -17 -9 51 152 466 88 927 -191 1382 l-24 39 -58
-94z m128 -125 c204 -396 231 -833 79 -1259 -35 -98 -139 -315 -151 -315 -14
0 -132 238 -174 350 -164 444 -113 898 147 1309 l28 43 18 -29 c10 -17 34 -61
53 -99z m1410 -750 c20 -4 37 -10 37 -14 0 -13 -119 -190 -175 -259 -69 -87
-213 -224 -298 -284 -188 -134 -392 -218 -647 -267 -124 -24 -350 -38 -350
-23 0 36 311 452 339 453 3 1 33 26 66 56 114 106 285 205 455 263 162 56 455
94 573 75z m-2743 -14 c422 -51 770 -249 1051 -597 72 -90 159 -222 159 -242
0 -27 -319 4 -509 49 -213 52 -426 160 -581 296 -129 114 -279 304 -351 447
l-29 57 88 0 c48 0 126 -5 172 -10z m1212 -896 c4 -3 -18 -44 -47 -92 -175
-286 -383 -487 -633 -612 -202 -101 -361 -139 -626 -147 l-170 -6 33 59 c95
170 302 400 457 507 240 167 521 262 859 290 75 7 122 7 127 1z m458 -18 c417
-69 713 -244 950 -561 68 -91 160 -242 160 -263 0 -14 -65 -15 -205 -2 -496
44 -900 295 -1207 748 -77 114 -83 106 78 99 76 -4 177 -13 224 -21z m-326
-146 c239 -468 252 -923 41 -1353 -74 -150 -114 -210 -130 -197 -7 6 -38 61
-68 123 -246 496 -229 987 52 1526 22 43 24 44 38 25 7 -10 38 -66 67 -124z"/>
<path d="M4497 8210 c-105 -36 -125 -46 -337 -168 -540 -311 -555 -321 -650
-413 l-64 -64 74 -7 c186 -18 411 -81 566 -157 99 -48 251 -148 328 -215 52
-44 59 -48 53 -26 -46 165 -54 438 -18 612 26 129 74 274 128 386 46 96 48 95
-80 52z"/>
<path d="M5019 8153 c127 -294 169 -620 116 -913 -7 -41 -12 -76 -10 -78 1 -1
34 24 73 57 178 149 363 246 577 301 83 21 279 50 343 50 l36 0 -49 51 c-74
76 -136 119 -343 238 -103 60 -232 134 -287 166 -194 113 -275 154 -365 185
-137 45 -136 46 -91 -57z"/>
<path d="M6309 7232 c-64 -112 -290 -338 -432 -433 -100 -67 -246 -143 -345
-179 -35 -12 -60 -26 -55 -30 4 -4 33 -16 63 -25 122 -40 299 -135 410 -220
92 -71 212 -195 294 -306 41 -55 77 -105 79 -112 9 -21 24 11 43 97 17 73 19
128 19 561 0 473 0 482 -24 578 -13 53 -27 97 -30 97 -3 0 -13 -12 -22 -28z"/>
<path d="M3265 7237 c-3 -9 -8 -25 -11 -34 -29 -92 -34 -182 -34 -628 0 -264
5 -479 10 -505 6 -25 18 -73 26 -107 l17 -62 60 82 c92 125 274 301 398 383
98 66 237 140 319 169 106 39 105 33 5 69 -101 37 -237 103 -305 149 -141 95
-313 260 -393 377 -74 109 -86 123 -92 107z"/>
<path d="M5144 5996 c33 -133 46 -390 26 -531 -22 -153 -78 -332 -146 -466
-19 -39 -34 -73 -32 -75 7 -6 115 26 185 54 65 27 222 115 598 335 209 122
233 139 319 220 l70 65 -60 7 c-357 38 -641 152 -893 358 -68 56 -74 59 -67
33z"/>
<path d="M4402 5941 c-234 -196 -505 -308 -807 -336 -38 -3 -85 -8 -104 -11
l-34 -5 44 -45 c60 -61 155 -131 269 -196 52 -30 203 -117 335 -193 132 -76
268 -152 303 -168 51 -24 186 -66 214 -67 4 0 -8 33 -27 73 -123 268 -172 602
-131 886 10 62 15 115 13 117 -2 3 -36 -22 -75 -55z"/>
<path d="M4160 4443 c0 -4 32 -116 71 -248 144 -483 251 -843 289 -970 21 -71
64 -215 95 -320 30 -104 62 -210 69 -235 8 -25 35 -116 61 -202 l48 -158 58 0
c33 0 59 3 59 6 0 3 119 481 265 1063 146 581 265 1059 265 1064 0 4 -60 7
-134 7 -120 0 -135 -2 -140 -17 -2 -10 -23 -99 -45 -198 -23 -99 -50 -218 -61
-265 -10 -47 -55 -245 -100 -440 -44 -195 -88 -388 -97 -428 -9 -40 -20 -69
-23 -65 -6 7 -113 372 -141 478 -4 17 -33 118 -64 225 -32 107 -61 209 -65
225 -11 40 -30 108 -88 310 l-48 170 -137 3 c-75 1 -137 -1 -137 -5z"/>
<path d="M9027 4031 c-111 -37 -188 -105 -244 -218 -66 -133 -69 -301 -8 -426
41 -82 126 -157 293 -256 206 -123 254 -176 267 -297 9 -74 -15 -169 -52 -209
-49 -53 -145 -71 -216 -41 -68 28 -94 82 -122 259 -4 26 -11 37 -23 37 -38 -1
-224 -29 -230 -35 -20 -19 24 -228 64 -304 75 -144 206 -221 379 -221 228 0
387 118 438 326 52 210 13 388 -113 514 -32 32 -125 100 -217 158 -242 154
-263 180 -249 315 11 107 67 167 157 167 80 0 140 -67 169 -188 12 -50 14 -53
39 -48 14 3 58 10 96 16 134 20 127 16 120 63 -10 64 -54 176 -92 234 -40 60
-87 101 -163 139 -73 37 -207 43 -293 15z"/>
<path d="M17 3903 c7 -71 20 -193 28 -273 14 -140 65 -643 105 -1055 11 -110
20 -208 20 -217 0 -16 10 -18 79 -18 78 0 79 0 85 28 4 15 16 56 26 92 32 107
101 349 127 445 46 173 65 228 73 214 5 -8 31 -97 60 -199 28 -102 60 -212 70
-245 10 -33 35 -122 57 -197 l38 -138 78 0 c59 0 77 3 77 14 0 8 20 216 45
463 46 450 71 706 100 993 8 85 17 170 20 188 l6 32 -136 0 -135 0 0 -37 c1
-70 -54 -863 -60 -863 -3 0 -22 62 -43 138 -21 75 -56 203 -79 285 l-41 147
-63 0 c-35 0 -64 -2 -64 -5 0 -3 -22 -85 -49 -183 -27 -97 -61 -223 -77 -279
-29 -107 -44 -130 -44 -65 0 20 -12 223 -27 450 l-27 412 -131 0 -131 0 13
-127z"/>
<path d="M1600 3185 l0 -845 435 0 435 0 0 120 0 120 -305 2 -305 3 -1 265 -2
265 252 3 251 2 0 120 0 120 -248 0 c-137 0 -251 2 -253 4 -2 2 -3 99 -1 215
l3 212 304 -3 305 -3 0 123 0 122 -435 0 -435 0 0 -845z"/>
<path d="M3030 3185 l0 -845 435 0 435 0 0 120 0 120 -305 0 -305 0 0 260 c0
143 0 263 0 268 0 4 112 8 250 10 l250 2 0 120 0 120 -250 0 -250 0 0 215 0
215 305 0 305 0 0 120 0 120 -435 0 -435 0 0 -845z"/>
<path d="M5890 3185 l0 -845 435 0 435 0 0 120 0 120 -305 0 -305 0 0 270 0
270 255 0 255 0 0 120 0 120 -255 0 -255 0 2 213 3 212 303 3 302 2 0 120 0
120 -435 0 -435 0 0 -845z"/>
<path d="M7240 3908 l0 -123 170 3 170 3 0 -726 0 -725 130 0 130 0 0 725 0
726 170 -3 170 -3 0 123 0 122 -470 0 -470 0 0 -122z"/>
<path d="M6060 2115 c-404 -69 -888 -287 -1170 -528 l-75 -64 -235 -11 c-129
-7 -354 -15 -500 -18 l-265 -7 -33 31 c-56 52 -108 50 -168 -6 -14 -14 -42
-22 -93 -27 -77 -8 -89 -23 -33 -40 18 -5 32 -13 32 -18 0 -4 -16 -34 -37 -65
-20 -31 -42 -71 -49 -88 -15 -35 -127 -139 -218 -203 -59 -41 -86 -50 -86 -31
0 10 36 82 85 170 14 25 25 55 25 67 0 48 -98 89 -141 59 -12 -8 -71 -63 -131
-122 -59 -59 -108 -103 -108 -98 0 5 9 33 20 62 26 68 25 84 -5 121 -51 59
-86 49 -131 -41 -20 -38 -37 -55 -106 -96 -97 -58 -184 -92 -236 -92 l-37 0
40 32 c22 18 64 55 93 83 66 66 70 101 17 151 -49 46 -96 53 -151 25 -40 -21
-124 -97 -124 -111 0 -4 -21 -22 -46 -40 -41 -29 -54 -33 -106 -33 -64 1 -89
13 -71 35 6 7 15 30 21 50 13 48 -3 71 -46 70 -78 -2 -137 -67 -129 -141 4
-39 2 -46 -27 -72 -68 -61 -126 -75 -126 -29 0 22 33 78 87 149 18 24 33 54
33 66 0 27 -71 95 -99 95 -27 0 -97 -76 -129 -140 -18 -38 -28 -75 -30 -121
-4 -63 -2 -68 28 -103 45 -51 82 -68 126 -60 38 7 119 57 170 106 30 28 34 29
73 18 23 -6 58 -8 78 -4 48 9 117 40 133 59 18 22 40 19 40 -5 0 -33 25 -73
74 -118 111 -102 202 -96 334 24 l62 56 0 -34 c0 -46 24 -76 65 -84 31 -5 42
-1 89 35 30 23 77 67 106 97 29 30 54 53 56 51 2 -2 -10 -30 -26 -63 -16 -32
-30 -66 -30 -75 -1 -66 171 -125 247 -85 17 8 66 49 107 89 70 68 76 72 76 48
0 -14 9 -45 20 -68 20 -46 44 -58 113 -56 64 1 193 81 296 183 41 41 42 41
109 38 60 -3 67 -5 70 -24 4 -26 -114 -154 -141 -154 -27 0 -20 19 28 78 25
30 45 58 45 63 0 31 -109 -27 -150 -78 -25 -32 -25 -57 0 -98 38 -62 108 -92
174 -74 72 19 175 140 192 226 12 62 -67 113 -175 113 -23 0 -41 2 -41 5 0 3
16 21 35 39 19 19 35 44 35 56 0 33 -56 80 -95 80 -68 0 -135 -97 -121 -174 7
-34 6 -35 -91 -104 -54 -38 -116 -80 -139 -92 -41 -24 -74 -22 -74 2 0 45 161
249 278 353 l43 38 479 5 c264 3 480 2 480 -1 0 -3 -9 -22 -21 -41 -61 -104
-56 -181 15 -252 93 -94 259 -104 571 -35 298 66 434 91 521 98 73 5 83 4 102
-15 29 -29 20 -52 -52 -121 -153 -151 -373 -277 -637 -366 l-144 -49 -145 0
c-123 -1 -150 2 -173 17 -50 33 -31 85 56 151 20 16 37 37 37 47 0 22 -54 59
-87 59 -27 0 -79 -43 -98 -81 -51 -98 30 -265 153 -312 205 -80 679 44 992
257 147 101 229 204 230 289 0 79 -72 168 -176 218 -51 24 -75 29 -136 29 -73
0 -246 -27 -350 -54 -76 -20 -342 -94 -417 -117 -35 -10 -85 -19 -112 -19 -43
0 -49 3 -55 25 -10 40 33 113 114 193 l74 72 196 0 c116 0 203 4 212 10 36 25
-119 100 -206 100 -19 0 -34 4 -34 8 0 12 218 141 360 214 337 172 634 268
827 268 123 -1 195 -44 162 -98 -29 -46 -179 -114 -343 -156 -54 -14 -101 -28
-104 -31 -11 -11 14 -40 51 -58 55 -28 157 -24 241 7 169 64 266 142 266 214
0 81 -98 168 -222 197 -76 18 -253 18 -358 0z m-3570 -848 c0 -16 -114 -128
-147 -146 -54 -28 -11 58 56 114 52 43 91 57 91 32z"/>
<path d="M1470 2074 c-14 -2 -59 -9 -100 -15 -178 -25 -452 -105 -631 -183
-344 -150 -543 -301 -640 -486 -19 -36 -24 -61 -24 -127 0 -75 2 -85 30 -125
30 -41 114 -95 174 -111 23 -6 21 -9 -35 -50 -225 -165 -241 -379 -36 -478 66
-32 208 -38 318 -14 266 59 665 293 907 532 121 121 118 132 -14 52 -269 -163
-647 -358 -852 -440 -166 -67 -319 -95 -368 -68 -77 41 -17 156 149 290 151
122 230 163 371 195 232 52 451 155 451 211 0 20 -62 43 -117 43 -119 0 -322
-61 -508 -151 -158 -76 -288 -88 -347 -31 -41 38 -39 110 3 178 41 64 61 86
140 149 235 189 648 376 1073 485 257 66 416 78 496 38 38 -20 45 -28 48 -57
3 -30 -3 -40 -55 -90 -39 -37 -93 -73 -156 -105 -53 -27 -97 -54 -97 -61 0
-28 74 -65 129 -65 65 1 192 94 231 170 64 125 11 233 -141 287 -66 24 -90 27
-224 29 -82 1 -161 0 -175 -2z"/>
<path d="M8054 1625 c-36 -37 -65 -105 -53 -127 12 -22 60 -48 89 -48 24 0 98
73 106 107 7 27 -15 57 -58 79 -38 20 -55 18 -84 -11z"/>
<path d="M9237 1395 c-44 -42 -60 -82 -54 -140 l5 -51 -76 -46 c-92 -55 -179
-88 -230 -88 l-37 0 40 32 c151 121 173 169 110 232 -67 67 -145 55 -232 -36
-118 -124 -199 -187 -318 -244 -116 -56 -165 -55 -165 5 0 57 117 231 156 231
28 0 13 -38 -37 -89 -28 -28 -49 -57 -46 -64 6 -19 54 -38 80 -32 37 10 107
77 117 113 7 27 5 37 -17 63 -38 45 -132 89 -190 89 -47 0 -49 -1 -143 -98
-92 -95 -184 -163 -242 -177 -39 -10 -37 5 19 119 41 86 45 99 33 120 -14 27
-50 46 -83 46 -24 -1 -75 -62 -96 -117 -7 -18 -29 -44 -48 -59 -30 -23 -46
-27 -95 -27 -72 1 -84 10 -63 49 32 62 15 108 -40 106 -75 -3 -129 -66 -122
-141 4 -39 2 -47 -26 -70 -71 -61 -112 -76 -123 -46 -10 26 4 58 60 135 31 41
56 82 56 91 0 23 -37 67 -72 85 -26 13 -35 14 -55 3 -24 -13 -90 -94 -113
-139 -26 -50 -189 -190 -221 -190 -28 0 -24 15 26 96 25 39 45 78 45 86 0 36
-97 86 -114 59 -9 -14 -72 -41 -97 -41 -23 0 -23 8 -4 34 20 26 19 71 -1 90
-31 31 -86 14 -122 -38 -27 -40 -28 -56 -2 -89 l20 -26 -32 -25 c-89 -67 -244
-136 -306 -136 l-37 0 40 32 c87 69 145 136 145 167 0 41 -54 97 -103 106
-112 21 -267 -149 -226 -249 20 -46 87 -115 141 -142 67 -34 122 -32 182 6 61
39 147 120 192 181 34 46 34 47 81 41 27 -2 50 -6 52 -8 2 -2 -6 -26 -18 -53
-11 -27 -21 -58 -21 -69 0 -50 89 -111 161 -112 41 0 107 45 153 104 31 42 46
46 46 13 0 -24 56 -85 98 -106 44 -23 107 3 210 87 51 41 54 42 92 32 48 -13
116 1 179 36 51 28 55 29 47 9 -17 -44 48 -126 115 -147 51 -15 79 -5 144 48
31 24 60 42 65 39 6 -4 8 -10 5 -15 -13 -21 64 -86 127 -108 130 -46 217 -18
358 115 43 40 80 73 83 73 3 0 8 -12 11 -26 10 -37 90 -119 141 -143 98 -46
169 -19 301 114 l91 92 71 1 c92 2 102 -9 61 -72 -36 -54 -96 -106 -121 -106
-26 0 -23 7 27 71 25 32 45 62 45 68 0 30 -61 -1 -127 -63 -25 -22 -33 -38
-33 -64 0 -66 109 -142 179 -125 86 20 201 160 201 243 0 56 -71 100 -160 100
-27 0 -50 4 -50 9 0 5 13 20 29 33 46 37 48 63 8 103 -44 44 -89 47 -130 10z
m-2767 -129 c0 -15 -147 -156 -162 -156 -30 0 14 82 63 120 67 51 99 62 99 36z
m2500 0 c0 -15 -116 -128 -150 -146 -31 -16 -26 21 8 62 60 74 142 122 142 84z"/>
<path d="M810 325 c0 -8 7 -15 15 -15 13 0 15 -22 15 -140 0 -118 -2 -140 -15
-140 -8 0 -15 -4 -15 -10 0 -6 28 -10 65 -10 57 0 69 3 90 25 33 32 35 105 5
135 -19 19 -19 22 -5 43 18 26 19 47 3 81 -13 30 -27 35 -102 41 -45 4 -56 1
-56 -10z m128 -27 c7 -7 12 -26 12 -43 0 -38 -16 -55 -52 -55 -27 0 -28 1 -28
55 0 54 1 55 28 55 15 0 33 -5 40 -12z m7 -143 c28 -27 30 -41 14 -82 -12 -33
-26 -43 -61 -43 -25 0 -26 2 -30 65 -1 36 -1 70 0 75 7 19 53 10 77 -15z"/>
<path d="M1523 262 c-8 -5 0 -28 28 -75 32 -57 39 -78 39 -123 0 -41 4 -54 15
-54 11 0 15 12 15 49 0 39 8 63 40 119 44 76 46 82 27 82 -7 0 -26 -27 -42
-60 -17 -33 -32 -60 -35 -60 -3 0 -21 29 -41 64 -22 42 -39 62 -46 58z"/>
<path d="M1912 243 c-44 -43 -52 -117 -20 -181 24 -49 50 -61 102 -48 29 7 56
66 56 121 0 74 -28 121 -78 131 -26 5 -36 1 -60 -23z m92 -25 c25 -35 22 -138
-4 -166 -25 -27 -51 -28 -73 -4 -33 37 -34 144 -1 177 22 22 60 19 78 -7z"/>
<path d="M3420 204 c-17 -35 -34 -64 -38 -64 -4 1 -20 28 -37 60 -16 33 -35
60 -42 60 -19 0 -17 -4 27 -80 32 -56 40 -78 40 -119 0 -39 4 -51 15 -51 11 0
15 12 15 52 0 41 8 66 40 124 30 55 36 73 25 77 -9 4 -23 -15 -45 -59z"/>
<path d="M3704 258 c-33 -16 -49 -55 -49 -124 0 -82 24 -118 82 -122 48 -4 67
14 84 79 16 60 5 115 -31 151 -30 29 -51 33 -86 16z m70 -33 c34 -35 33 -143
-3 -178 -26 -27 -68 -16 -82 21 -14 35 -7 135 10 156 17 20 55 21 75 1z"/>
<path d="M6188 255 c-34 -19 -52 -72 -46 -141 6 -71 35 -104 90 -104 65 0 78
13 78 75 l0 55 -45 0 c-25 0 -45 -4 -45 -10 0 -5 14 -10 30 -10 28 0 30 -2 30
-39 0 -26 -5 -41 -16 -45 -29 -11 -54 -6 -74 14 -26 26 -28 133 -4 168 18 26
65 30 84 7 16 -19 30 -19 30 -1 0 35 -70 54 -112 31z"/>
<path d="M8322 260 c-29 -12 -52 -67 -52 -124 0 -85 29 -126 91 -126 34 0 42
5 59 33 14 22 20 50 20 90 0 68 -20 114 -56 127 -30 12 -32 12 -62 0z m72 -39
c9 -10 19 -40 22 -67 10 -91 -47 -153 -95 -105 -27 27 -30 134 -5 169 19 27
55 29 78 3z"/>
<path d="M1180 135 l0 -125 80 0 c94 0 108 18 18 22 l-63 3 -3 48 -3 47 56 0
c74 0 71 24 -3 28 l-52 3 0 40 0 39 65 0 c37 0 65 4 65 10 0 6 -33 10 -80 10
l-80 0 0 -125z"/>
<path d="M2232 138 c2 -86 7 -123 16 -126 9 -3 12 22 12 104 0 59 4 104 8 99
5 -6 28 -54 53 -107 31 -71 49 -98 61 -98 16 0 18 12 18 125 0 109 -2 125 -16
125 -15 0 -16 -13 -12 -105 3 -58 3 -105 1 -105 -6 0 -93 186 -93 199 0 6 -11
11 -25 11 l-26 0 3 -122z"/>
<path d="M2590 250 c0 -5 5 -10 10 -10 6 0 10 -42 10 -105 0 -63 -4 -105 -10
-105 -5 0 -10 -4 -10 -10 0 -11 119 -14 136 -2 29 20 44 59 44 115 0 61 -18
110 -45 121 -27 10 -135 7 -135 -4z m132 -27 c14 -12 18 -31 18 -83 0 -78 -12
-98 -63 -107 l-37 -6 0 107 0 106 32 0 c17 0 40 -7 50 -17z"/>
<path d="M4020 152 c0 -126 9 -142 78 -142 62 0 72 21 72 147 0 86 -3 103 -15
103 -13 0 -16 -16 -14 -100 1 -108 -6 -130 -47 -130 -44 0 -54 23 -54 131 0
59 -4 99 -10 99 -6 0 -10 -43 -10 -108z"/>
<path d="M4380 135 c0 -77 4 -125 10 -125 6 0 10 25 10 55 0 54 0 55 29 55 25
0 34 -8 61 -55 17 -30 36 -55 41 -55 15 0 10 19 -16 58 -30 44 -31 53 -5 75
26 22 27 78 2 100 -13 12 -37 17 -75 17 l-57 0 0 -125z m115 91 c29 -21 10
-67 -32 -79 -50 -15 -63 -4 -63 48 l0 45 38 0 c21 0 47 -6 57 -14z"/>
<path d="M5110 251 c0 -5 9 -11 20 -14 18 -5 20 -14 20 -102 0 -88 -2 -97 -20
-102 -37 -10 -20 -23 30 -23 50 0 67 13 30 23 -18 5 -20 14 -20 106 0 94 1
101 20 101 11 0 20 5 20 10 0 6 -22 10 -50 10 -27 0 -50 -4 -50 -9z"/>
<path d="M5426 223 c-3 -21 -6 -77 -6 -125 0 -72 3 -88 15 -88 12 0 15 18 15
100 0 60 4 100 10 100 6 0 10 -4 10 -9 0 -5 10 -32 23 -61 l23 -52 24 61 c14
34 28 61 32 61 5 0 8 -45 8 -100 0 -82 3 -100 15 -100 17 0 20 77 9 189 -9 82
-32 84 -64 5 -13 -30 -26 -52 -30 -47 -4 4 -15 29 -25 56 -22 60 -50 64 -59
10z"/>
<path d="M5815 148 c-20 -62 -38 -119 -40 -125 -2 -7 2 -13 10 -13 7 0 19 16
25 35 11 34 13 35 60 35 47 0 50 -1 58 -32 4 -18 16 -34 25 -36 11 -2 15 2 12
10 -2 7 -20 64 -40 126 -29 91 -40 112 -55 112 -15 0 -26 -21 -55 -112z m76
20 c8 -29 13 -55 12 -58 -6 -11 -74 -7 -70 4 2 6 10 32 18 59 7 26 16 47 19
47 4 0 13 -24 21 -52z"/>
<path d="M6530 251 c0 -5 9 -11 20 -14 18 -5 20 -14 20 -102 0 -88 -2 -97 -20
-102 -37 -10 -20 -23 30 -23 50 0 67 13 30 23 -18 5 -20 14 -20 106 0 94 1
101 20 101 11 0 20 5 20 10 0 6 -22 10 -50 10 -27 0 -50 -4 -50 -9z"/>
<path d="M6850 135 c0 -103 3 -125 15 -125 11 0 15 21 17 108 l3 107 47 -105
c35 -79 52 -106 67 -108 20 -3 21 1 21 122 0 105 -2 126 -15 126 -12 0 -15
-19 -15 -107 l-1 -108 -33 70 c-18 39 -41 87 -50 108 -12 23 -25 37 -37 37
-18 0 -19 -9 -19 -125z"/>
<path d="M7245 178 c-58 -180 -55 -168 -40 -168 7 0 19 16 25 35 12 36 12 36
63 33 48 -3 51 -5 59 -35 5 -20 15 -33 24 -33 11 0 14 5 9 18 -3 9 -22 65 -41
125 -28 85 -39 107 -54 107 -14 0 -24 -18 -45 -82z m69 -10 c8 -28 13 -55 10
-60 -6 -10 -62 -6 -64 5 -3 15 24 107 31 107 4 0 14 -23 23 -52z"/>
<path d="M7560 250 c0 -5 16 -10 35 -10 l35 0 0 -115 c0 -96 3 -115 15 -115
12 0 15 19 15 115 l0 115 35 0 c19 0 35 5 35 10 0 6 -35 10 -85 10 -50 0 -85
-4 -85 -10z"/>
<path d="M7950 250 c0 -5 9 -10 20 -10 19 0 20 -7 20 -101 0 -92 -2 -101 -20
-106 -37 -10 -20 -23 30 -23 50 0 67 13 30 23 -18 5 -20 14 -20 102 0 88 2 97
20 102 37 10 20 23 -30 23 -27 0 -50 -4 -50 -10z"/>
<path d="M8630 134 c0 -96 3 -125 13 -121 8 3 12 32 11 105 -1 56 2 102 5 102
3 0 26 -47 51 -103 33 -75 51 -103 65 -105 19 -3 20 3 20 123 0 91 -3 125 -12
125 -9 0 -13 -31 -15 -107 l-3 -108 -26 55 c-14 30 -36 79 -49 108 -16 35 -29
52 -42 52 -16 0 -18 -11 -18 -126z"/>
</g>
</svg>
